<svg xmlns="http://www.w3.org/2000/svg" width="1em" height="1em" viewBox="0 0 14 14">
	<path fill="currentColor" fill-rule="evenodd" d="M4.822 1.112a3.08 3.08 0 0 1 5.256 2.08a3.07 3.07 0 0 1 3.767 1.992l-.475.156l.475-.155a3.052 3.052 0 0 1-1.86 3.813a3.04 3.04 0 0 1-.753 4.168a3.09 3.09 0 0 1-4.227-.581a3.09 3.09 0 0 1-5.043-.291A3.04 3.04 0 0 1 2.022 9a3.062 3.062 0 0 1 1.9-5.817a3.08 3.08 0 0 1 .9-2.07ZM9.205 7.26c0 1.21-.987 2.19-2.205 2.19a2.198 2.198 0 0 1-2.205-2.19c0-1.21.987-2.19 2.205-2.19s2.205.98 2.205 2.19" clip-rule="evenodd" />
</svg>
